<svg id="visual" viewBox="0 0 900 600" width="900" height="600" xmlns="http://www.w3.org/2000/svg" xmlns:xlink="http://www.w3.org/1999/xlink" version="1.1"><rect x="0" y="0" width="900" height="600" fill="#001220"></rect><defs><linearGradient id="grad1_0" x1="33.3%" y1="0%" x2="100%" y2="100%"><stop offset="20%" stop-color="#001220" stop-opacity="1"></stop><stop offset="80%" stop-color="#001220" stop-opacity="1"></stop></linearGradient></defs><defs><linearGradient id="grad2_0" x1="0%" y1="0%" x2="66.7%" y2="100%"><stop offset="20%" stop-color="#001220" stop-opacity="1"></stop><stop offset="80%" stop-color="#001220" stop-opacity="1"></stop></linearGradient></defs><g transform="translate(900, 0)"><path d="M0 486.7C-61.8 477.5 -123.6 468.2 -185.2 447.2C-246.9 426.1 -308.5 393.3 -344.2 344.2C-379.9 295.1 -389.8 229.6 -409.3 169.5C-428.7 109.4 -457.7 54.7 -486.7 0L0 0Z" fill="#FBAE3C"></path></g><g transform="translate(0, 600)"><path d="M0 -486.7C50.5 -453.1 101.1 -419.5 166.8 -402.8C232.6 -386.1 313.6 -386.2 344.2 -344.2C374.8 -302.1 355.1 -217.9 370.5 -153.5C385.8 -89.1 436.3 -44.5 486.7 0L0 0Z" fill="#FBAE3C"></path></g></svg>