<svg id="visual" viewBox="0 0 900 600" width="900" height="600" xmlns="http://www.w3.org/2000/svg" xmlns:xlink="http://www.w3.org/1999/xlink" version="1.1"><rect x="0" y="0" width="900" height="600" fill="#001220"></rect><path d="M0 432L21.5 418.8C43 405.7 86 379.3 128.8 372.8C171.7 366.3 214.3 379.7 257.2 393.7C300 407.7 343 422.3 385.8 421.7C428.7 421 471.3 405 514.2 404C557 403 600 417 642.8 412.7C685.7 408.3 728.3 385.7 771.2 385.2C814 384.7 857 406.3 878.5 417.2L900 428L900 601L878.5 601C857 601 814 601 771.2 601C728.3 601 685.7 601 642.8 601C600 601 557 601 514.2 601C471.3 601 428.7 601 385.8 601C343 601 300 601 257.2 601C214.3 601 171.7 601 128.8 601C86 601 43 601 21.5 601L0 601Z" fill="#fa7268"></path><path d="M0 429L21.5 427C43 425 86 421 128.8 426.2C171.7 431.3 214.3 445.7 257.2 451.7C300 457.7 343 455.3 385.8 458C428.7 460.7 471.3 468.3 514.2 466.3C557 464.3 600 452.7 642.8 440.3C685.7 428 728.3 415 771.2 407.2C814 399.3 857 396.7 878.5 395.3L900 394L900 601L878.5 601C857 601 814 601 771.2 601C728.3 601 685.7 601 642.8 601C600 601 557 601 514.2 601C471.3 601 428.7 601 385.8 601C343 601 300 601 257.2 601C214.3 601 171.7 601 128.8 601C86 601 43 601 21.5 601L0 601Z" fill="#ef5f67"></path><path d="M0 509L21.5 504.5C43 500 86 491 128.8 479.5C171.7 468 214.3 454 257.2 452.2C300 450.3 343 460.7 385.8 469.5C428.7 478.3 471.3 485.7 514.2 480.2C557 474.7 600 456.3 642.8 457.7C685.7 459 728.3 480 771.2 488C814 496 857 491 878.5 488.5L900 486L900 601L878.5 601C857 601 814 601 771.2 601C728.3 601 685.7 601 642.8 601C600 601 557 601 514.2 601C471.3 601 428.7 601 385.8 601C343 601 300 601 257.2 601C214.3 601 171.7 601 128.8 601C86 601 43 601 21.5 601L0 601Z" fill="#e34c67"></path><path d="M0 538L21.5 530.3C43 522.7 86 507.3 128.8 499C171.7 490.7 214.3 489.3 257.2 493.5C300 497.7 343 507.3 385.8 514.2C428.7 521 471.3 525 514.2 520.3C557 515.7 600 502.3 642.8 498.7C685.7 495 728.3 501 771.2 505.7C814 510.3 857 513.7 878.5 515.3L900 517L900 601L878.5 601C857 601 814 601 771.2 601C728.3 601 685.7 601 642.8 601C600 601 557 601 514.2 601C471.3 601 428.7 601 385.8 601C343 601 300 601 257.2 601C214.3 601 171.7 601 128.8 601C86 601 43 601 21.5 601L0 601Z" fill="#d53867"></path><path d="M0 534L21.5 537.7C43 541.3 86 548.7 128.8 551.8C171.7 555 214.3 554 257.2 549C300 544 343 535 385.8 537.2C428.7 539.3 471.3 552.7 514.2 554C557 555.3 600 544.7 642.8 541C685.7 537.3 728.3 540.7 771.2 544.5C814 548.3 857 552.7 878.5 554.8L900 557L900 601L878.5 601C857 601 814 601 771.2 601C728.3 601 685.7 601 642.8 601C600 601 557 601 514.2 601C471.3 601 428.7 601 385.8 601C343 601 300 601 257.2 601C214.3 601 171.7 601 128.8 601C86 601 43 601 21.5 601L0 601Z" fill="#c62368"></path></svg>