<svg id="visual" viewBox="0 0 900 600" width="900" height="600" xmlns="http://www.w3.org/2000/svg" xmlns:xlink="http://www.w3.org/1999/xlink" version="1.1"><g stroke-width="1" stroke-linejoin="bevel"><path d="M396 307L309 318L370 360Z" fill="#246688" stroke="#246688"></path><path d="M309 318L328 410L370 360Z" fill="#277297" stroke="#277297"></path><path d="M396 307L292 202L309 318Z" fill="#205a7a" stroke="#205a7a"></path><path d="M406 198L292 202L396 307Z" fill="#277297" stroke="#277297"></path><path d="M292 202L209 306L309 318Z" fill="#00101c" stroke="#00101c"></path><path d="M309 318L215 394L328 410Z" fill="#15384f" stroke="#15384f"></path><path d="M215 394L327 463L328 410Z" fill="#205a7a" stroke="#205a7a"></path><path d="M328 410L360 497L370 360Z" fill="#246688" stroke="#246688"></path><path d="M370 360L500 398L396 307Z" fill="#246688" stroke="#246688"></path><path d="M209 306L215 394L309 318Z" fill="#246688" stroke="#246688"></path><path d="M491 476L500 398L370 360Z" fill="#277297" stroke="#277297"></path><path d="M396 307L533 285L406 198Z" fill="#00101c" stroke="#00101c"></path><path d="M265 600L360 497L327 463Z" fill="#246688" stroke="#246688"></path><path d="M327 463L360 497L328 410Z" fill="#277297" stroke="#277297"></path><path d="M500 398L533 285L396 307Z" fill="#277297" stroke="#277297"></path><path d="M292 202L196 210L209 306Z" fill="#19435d" stroke="#19435d"></path><path d="M209 306L121 409L215 394Z" fill="#19435d" stroke="#19435d"></path><path d="M533 285L497 183L406 198Z" fill="#0c2435" stroke="#0c2435"></path><path d="M406 198L414 104L292 202Z" fill="#246688" stroke="#246688"></path><path d="M292 202L184 131L196 210Z" fill="#0c2435" stroke="#0c2435"></path><path d="M500 398L560 312L533 285Z" fill="#112e42" stroke="#112e42"></path><path d="M533 285L592 195L497 183Z" fill="#205a7a" stroke="#205a7a"></path><path d="M360 497L491 476L370 360Z" fill="#081a28" stroke="#081a28"></path><path d="M500 398L564 413L560 312Z" fill="#19435d" stroke="#19435d"></path><path d="M497 183L414 104L406 198Z" fill="#277297" stroke="#277297"></path><path d="M491 476L564 413L500 398Z" fill="#00101c" stroke="#00101c"></path><path d="M196 210L120 286L209 306Z" fill="#112e42" stroke="#112e42"></path><path d="M120 286L121 409L209 306Z" fill="#112e42" stroke="#112e42"></path><path d="M215 394L189 508L327 463Z" fill="#19435d" stroke="#19435d"></path><path d="M121 409L189 508L215 394Z" fill="#297ea6" stroke="#297ea6"></path><path d="M281 65L184 131L292 202Z" fill="#081a28" stroke="#081a28"></path><path d="M196 210L97 172L120 286Z" fill="#19435d" stroke="#19435d"></path><path d="M592 195L511 114L497 183Z" fill="#112e42" stroke="#112e42"></path><path d="M497 183L511 114L414 104Z" fill="#297ea6" stroke="#297ea6"></path><path d="M414 104L281 65L292 202Z" fill="#277297" stroke="#277297"></path><path d="M309 0L281 65L414 104Z" fill="#246688" stroke="#246688"></path><path d="M560 312L592 195L533 285Z" fill="#112e42" stroke="#112e42"></path><path d="M681 325L592 195L560 312Z" fill="#081a28" stroke="#081a28"></path><path d="M265 600L382 600L360 497Z" fill="#15384f" stroke="#15384f"></path><path d="M360 497L382 600L491 476Z" fill="#00101c" stroke="#00101c"></path><path d="M491 476L576 497L564 413Z" fill="#1d4e6b" stroke="#1d4e6b"></path><path d="M494 600L576 497L491 476Z" fill="#15384f" stroke="#15384f"></path><path d="M564 413L681 325L560 312Z" fill="#00101c" stroke="#00101c"></path><path d="M189 508L265 600L327 463Z" fill="#112e42" stroke="#112e42"></path><path d="M184 131L97 172L196 210Z" fill="#0c2435" stroke="#0c2435"></path><path d="M0 386L83 464L121 409Z" fill="#00101c" stroke="#00101c"></path><path d="M110 96L97 172L184 131Z" fill="#246688" stroke="#246688"></path><path d="M0 386L121 409L120 286Z" fill="#1d4e6b" stroke="#1d4e6b"></path><path d="M121 409L83 464L189 508Z" fill="#15384f" stroke="#15384f"></path><path d="M189 508L211 600L265 600Z" fill="#15384f" stroke="#15384f"></path><path d="M382 600L494 600L491 476Z" fill="#081a28" stroke="#081a28"></path><path d="M82 600L211 600L189 508Z" fill="#112e42" stroke="#112e42"></path><path d="M410 0L309 0L414 104Z" fill="#0c2435" stroke="#0c2435"></path><path d="M131 0L110 96L184 131Z" fill="#246688" stroke="#246688"></path><path d="M486 0L414 104L511 114Z" fill="#1d4e6b" stroke="#1d4e6b"></path><path d="M486 0L410 0L414 104Z" fill="#1d4e6b" stroke="#1d4e6b"></path><path d="M730 402L681 325L564 413Z" fill="#1d4e6b" stroke="#1d4e6b"></path><path d="M666 184L599 99L592 195Z" fill="#112e42" stroke="#112e42"></path><path d="M592 195L599 99L511 114Z" fill="#205a7a" stroke="#205a7a"></path><path d="M236 0L184 131L281 65Z" fill="#112e42" stroke="#112e42"></path><path d="M309 0L236 0L281 65Z" fill="#19435d" stroke="#19435d"></path><path d="M681 325L666 184L592 195Z" fill="#297ea6" stroke="#297ea6"></path><path d="M590 0L486 0L511 114Z" fill="#15384f" stroke="#15384f"></path><path d="M0 204L120 286L97 172Z" fill="#19435d" stroke="#19435d"></path><path d="M0 204L0 282L120 286Z" fill="#19435d" stroke="#19435d"></path><path d="M0 282L0 386L120 286Z" fill="#15384f" stroke="#15384f"></path><path d="M83 464L82 600L189 508Z" fill="#297ea6" stroke="#297ea6"></path><path d="M0 113L0 204L97 172Z" fill="#0c2435" stroke="#0c2435"></path><path d="M576 497L730 402L564 413Z" fill="#00101c" stroke="#00101c"></path><path d="M801 225L726 133L666 184Z" fill="#246688" stroke="#246688"></path><path d="M722 513L730 402L576 497Z" fill="#297ea6" stroke="#297ea6"></path><path d="M494 600L619 600L576 497Z" fill="#00101c" stroke="#00101c"></path><path d="M236 0L131 0L184 131Z" fill="#19435d" stroke="#19435d"></path><path d="M110 96L0 113L97 172Z" fill="#205a7a" stroke="#205a7a"></path><path d="M0 507L82 600L83 464Z" fill="#19435d" stroke="#19435d"></path><path d="M686 0L590 0L599 99Z" fill="#277297" stroke="#277297"></path><path d="M599 99L590 0L511 114Z" fill="#15384f" stroke="#15384f"></path><path d="M0 386L0 507L83 464Z" fill="#15384f" stroke="#15384f"></path><path d="M0 0L0 113L110 96Z" fill="#00101c" stroke="#00101c"></path><path d="M801 225L666 184L681 325Z" fill="#15384f" stroke="#15384f"></path><path d="M666 184L726 133L599 99Z" fill="#246688" stroke="#246688"></path><path d="M619 600L722 513L576 497Z" fill="#19435d" stroke="#19435d"></path><path d="M0 507L0 600L82 600Z" fill="#1d4e6b" stroke="#1d4e6b"></path><path d="M819 405L809 289L730 402Z" fill="#15384f" stroke="#15384f"></path><path d="M730 402L809 289L681 325Z" fill="#0c2435" stroke="#0c2435"></path><path d="M619 600L714 600L722 513Z" fill="#1d4e6b" stroke="#1d4e6b"></path><path d="M722 513L774 499L730 402Z" fill="#0c2435" stroke="#0c2435"></path><path d="M809 289L801 225L681 325Z" fill="#081a28" stroke="#081a28"></path><path d="M782 600L774 499L722 513Z" fill="#00101c" stroke="#00101c"></path><path d="M781 0L686 0L726 133Z" fill="#277297" stroke="#277297"></path><path d="M726 133L686 0L599 99Z" fill="#205a7a" stroke="#205a7a"></path><path d="M774 499L819 405L730 402Z" fill="#0c2435" stroke="#0c2435"></path><path d="M131 0L0 0L110 96Z" fill="#081a28" stroke="#081a28"></path><path d="M801 225L792 112L726 133Z" fill="#1d4e6b" stroke="#1d4e6b"></path><path d="M900 182L792 112L801 225Z" fill="#15384f" stroke="#15384f"></path><path d="M714 600L782 600L722 513Z" fill="#205a7a" stroke="#205a7a"></path><path d="M900 484L900 394L819 405Z" fill="#277297" stroke="#277297"></path><path d="M792 112L781 0L726 133Z" fill="#1d4e6b" stroke="#1d4e6b"></path><path d="M819 405L900 303L809 289Z" fill="#1d4e6b" stroke="#1d4e6b"></path><path d="M809 289L900 303L801 225Z" fill="#00101c" stroke="#00101c"></path><path d="M792 112L900 0L781 0Z" fill="#15384f" stroke="#15384f"></path><path d="M900 394L900 303L819 405Z" fill="#205a7a" stroke="#205a7a"></path><path d="M900 484L819 405L774 499Z" fill="#205a7a" stroke="#205a7a"></path><path d="M900 303L900 182L801 225Z" fill="#081a28" stroke="#081a28"></path><path d="M900 600L900 484L774 499Z" fill="#081a28" stroke="#081a28"></path><path d="M900 182L900 138L792 112Z" fill="#00101c" stroke="#00101c"></path><path d="M782 600L900 600L774 499Z" fill="#15384f" stroke="#15384f"></path><path d="M900 138L900 0L792 112Z" fill="#205a7a" stroke="#205a7a"></path></g></svg>