<svg id="visual" viewBox="0 0 900 600" width="900" height="600" xmlns="http://www.w3.org/2000/svg" xmlns:xlink="http://www.w3.org/1999/xlink" version="1.1"><path d="M0 121L13.7 129C27.3 137 54.7 153 82 180C109.3 207 136.7 245 163.8 251C191 257 218 231 245.2 209C272.3 187 299.7 169 327 155C354.3 141 381.7 131 409 138C436.3 145 463.7 169 491 180C518.3 191 545.7 189 573 184C600.3 179 627.7 171 654.8 155C682 139 709 115 736.2 132C763.3 149 790.7 207 818 210C845.3 213 872.7 161 886.3 135L900 109L900 0L886.3 0C872.7 0 845.3 0 818 0C790.7 0 763.3 0 736.2 0C709 0 682 0 654.8 0C627.7 0 600.3 0 573 0C545.7 0 518.3 0 491 0C463.7 0 436.3 0 409 0C381.7 0 354.3 0 327 0C299.7 0 272.3 0 245.2 0C218 0 191 0 163.8 0C136.7 0 109.3 0 82 0C54.7 0 27.3 0 13.7 0L0 0Z" fill="#6198ff"></path><path d="M0 337L13.7 333C27.3 329 54.7 321 82 328C109.3 335 136.7 357 163.8 353C191 349 218 319 245.2 324C272.3 329 299.7 369 327 369C354.3 369 381.7 329 409 313C436.3 297 463.7 305 491 309C518.3 313 545.7 313 573 313C600.3 313 627.7 313 654.8 312C682 311 709 309 736.2 315C763.3 321 790.7 335 818 339C845.3 343 872.7 337 886.3 334L900 331L900 107L886.3 133C872.7 159 845.3 211 818 208C790.7 205 763.3 147 736.2 130C709 113 682 137 654.8 153C627.7 169 600.3 177 573 182C545.7 187 518.3 189 491 178C463.7 167 436.3 143 409 136C381.7 129 354.3 139 327 153C299.7 167 272.3 185 245.2 207C218 229 191 255 163.8 249C136.7 243 109.3 205 82 178C54.7 151 27.3 135 13.7 127L0 119Z" fill="#3c80ff"></path><path d="M0 421L13.7 422C27.3 423 54.7 425 82 428C109.3 431 136.7 435 163.8 438C191 441 218 443 245.2 450C272.3 457 299.7 469 327 460C354.3 451 381.7 421 409 408C436.3 395 463.7 399 491 408C518.3 417 545.7 431 573 442C600.3 453 627.7 461 654.8 457C682 453 709 437 736.2 440C763.3 443 790.7 465 818 462C845.3 459 872.7 431 886.3 417L900 403L900 329L886.3 332C872.7 335 845.3 341 818 337C790.7 333 763.3 319 736.2 313C709 307 682 309 654.8 310C627.7 311 600.3 311 573 311C545.7 311 518.3 311 491 307C463.7 303 436.3 295 409 311C381.7 327 354.3 367 327 367C299.7 367 272.3 327 245.2 322C218 317 191 347 163.8 351C136.7 355 109.3 333 82 326C54.7 319 27.3 327 13.7 331L0 335Z" fill="#0066ff"></path><path d="M0 541L13.7 537C27.3 533 54.7 525 82 525C109.3 525 136.7 533 163.8 531C191 529 218 517 245.2 521C272.3 525 299.7 545 327 544C354.3 543 381.7 521 409 514C436.3 507 463.7 515 491 521C518.3 527 545.7 531 573 536C600.3 541 627.7 547 654.8 541C682 535 709 517 736.2 516C763.3 515 790.7 531 818 533C845.3 535 872.7 523 886.3 517L900 511L900 401L886.3 415C872.7 429 845.3 457 818 460C790.7 463 763.3 441 736.2 438C709 435 682 451 654.8 455C627.7 459 600.3 451 573 440C545.7 429 518.3 415 491 406C463.7 397 436.3 393 409 406C381.7 419 354.3 449 327 458C299.7 467 272.3 455 245.2 448C218 441 191 439 163.8 436C136.7 433 109.3 429 82 426C54.7 423 27.3 421 13.7 420L0 419Z" fill="#0059dd"></path><path d="M0 601L13.7 601C27.3 601 54.7 601 82 601C109.3 601 136.7 601 163.8 601C191 601 218 601 245.2 601C272.3 601 299.7 601 327 601C354.3 601 381.7 601 409 601C436.3 601 463.7 601 491 601C518.3 601 545.7 601 573 601C600.3 601 627.7 601 654.8 601C682 601 709 601 736.2 601C763.3 601 790.7 601 818 601C845.3 601 872.7 601 886.3 601L900 601L900 509L886.3 515C872.7 521 845.3 533 818 531C790.7 529 763.3 513 736.2 514C709 515 682 533 654.8 539C627.7 545 600.3 539 573 534C545.7 529 518.3 525 491 519C463.7 513 436.3 505 409 512C381.7 519 354.3 541 327 542C299.7 543 272.3 523 245.2 519C218 515 191 527 163.8 529C136.7 531 109.3 523 82 523C54.7 523 27.3 531 13.7 535L0 539Z" fill="#004cbb"></path></svg>